<?xml version="1.0" encoding="utf-8"?>
<!-- Generator: Adobe Illustrator 25.0.1, SVG Export Plug-In . SVG Version: 6.00 Build 0)  -->
<svg version="1.1" id="Layer_1" xmlns="http://www.w3.org/2000/svg" xmlns:xlink="http://www.w3.org/1999/xlink" x="0px" y="0px"
	 viewBox="0 0 600 600" style="enable-background:new 0 0 600 600;" xml:space="preserve">
<style type="text/css">
	.st0{fill:#FFFFFF;}
	.st1{fill:none;stroke:#000000;stroke-width:15.0064;stroke-miterlimit:10;}
	.st2{fill:#CC1919;}
</style>
<circle class="st0" cx="311" cy="262" r="141"/>
<g>
	<path d="M370.01,179H397v109h-21v-81.64l0.99,4.8L342.89,288h-16.34l-34.56-75.34l1.02-6.3l0.76,81.64H272l-0.7-109h28.65
		l35.6,76.48L370.01,179z"/>
</g>
<circle class="st1" cx="311.5" cy="261.5" r="141"/>
<g>
	<path class="st2" d="M226.55,335.84c-2.24-0.92-7.91-4.5-11.01-7.85c0,0-1.01-0.53-3.34-4.18c0,0-0.73-1.26-1.6-2.7
		c-1.34-2.22-2.53-4.91-2.84-6.48c-0.15-0.79-2.2-5.84-2.4-10.95c-0.17-4.21,0.7-8.42,0.61-10.68l21.92-0.24
		c0.19,1.14-0.32,5.27,0,8.64c0.31,3.3,1.61,7.49,2.45,9c1.82,3.28,4.76,6.28,6.61,7.08c3.47,1.51,5.94,2.04,10.53,2.04
		c7.81,0,14.07-1.98,18.37-6.12c4.3-4.14,5.88-7.14,5.88-14.64l-0.73-119.36l22.08,35.99l0.83,83.37c0,8.45-3.08,15.76-6.55,21.75
		c-3.48,5.99-8.56,10.54-15.26,13.68c-6.69,3.13-14.92,5.73-24.37,5.73C240.13,339.92,232.92,338.47,226.55,335.84z"/>
</g>
</svg>
